<mxfile host="app.diagrams.net" modified="2023-05-25T15:23:47.331Z" agent="Mozilla/5.0 (Windows NT 10.0; Win64; x64) AppleWebKit/537.36 (KHTML, like Gecko) Chrome/113.0.0.0 Safari/537.36" etag="WddeVxDzmNJlbTywN92s" version="21.3.3" type="device">
  <diagram name="Page-1" id="2YBvvXClWsGukQMizWep">
    <mxGraphModel dx="989" dy="482" grid="1" gridSize="10" guides="1" tooltips="1" connect="1" arrows="1" fold="1" page="1" pageScale="1" pageWidth="850" pageHeight="1100" math="0" shadow="0">
      <root>
        <mxCell id="0" />
        <mxCell id="1" parent="0" />
        <mxCell id="Hr3CezeHWbQ0Q17u9RuE-33" value="Visiteur" style="shape=umlLifeline;perimeter=lifelinePerimeter;whiteSpace=wrap;html=1;container=1;dropTarget=0;collapsible=0;recursiveResize=0;outlineConnect=0;portConstraint=eastwest;newEdgeStyle={&quot;edgeStyle&quot;:&quot;elbowEdgeStyle&quot;,&quot;elbow&quot;:&quot;vertical&quot;,&quot;curved&quot;:0,&quot;rounded&quot;:0};size=40;rounded=1;fillColor=#7EA6E0;" vertex="1" parent="1">
          <mxGeometry x="70" y="20" width="120" height="440" as="geometry" />
        </mxCell>
        <mxCell id="Hr3CezeHWbQ0Q17u9RuE-34" value="Front-end&lt;br&gt;(ReactJs)" style="shape=umlLifeline;perimeter=lifelinePerimeter;whiteSpace=wrap;html=1;container=1;dropTarget=0;collapsible=0;recursiveResize=0;outlineConnect=0;portConstraint=eastwest;newEdgeStyle={&quot;edgeStyle&quot;:&quot;elbowEdgeStyle&quot;,&quot;elbow&quot;:&quot;vertical&quot;,&quot;curved&quot;:0,&quot;rounded&quot;:0};size=40;rounded=1;fillColor=#CCFFFF;" vertex="1" parent="1">
          <mxGeometry x="230" y="20" width="120" height="440" as="geometry" />
        </mxCell>
        <mxCell id="Hr3CezeHWbQ0Q17u9RuE-35" value="" style="html=1;points=[];perimeter=orthogonalPerimeter;outlineConnect=0;targetShapes=umlLifeline;portConstraint=eastwest;newEdgeStyle={&quot;edgeStyle&quot;:&quot;elbowEdgeStyle&quot;,&quot;elbow&quot;:&quot;vertical&quot;,&quot;curved&quot;:0,&quot;rounded&quot;:0};fillColor=#CCFFFF;rounded=1;" vertex="1" parent="Hr3CezeHWbQ0Q17u9RuE-34">
          <mxGeometry x="55" y="50" width="10" height="330" as="geometry" />
        </mxCell>
        <mxCell id="Hr3CezeHWbQ0Q17u9RuE-38" value="Back-end&lt;br&gt;(Api rest)" style="shape=umlLifeline;perimeter=lifelinePerimeter;whiteSpace=wrap;html=1;container=1;dropTarget=0;collapsible=0;recursiveResize=0;outlineConnect=0;portConstraint=eastwest;newEdgeStyle={&quot;edgeStyle&quot;:&quot;elbowEdgeStyle&quot;,&quot;elbow&quot;:&quot;vertical&quot;,&quot;curved&quot;:0,&quot;rounded&quot;:0};size=40;rounded=1;fillColor=#FFFFCC;" vertex="1" parent="1">
          <mxGeometry x="390" y="20" width="120" height="440" as="geometry" />
        </mxCell>
        <mxCell id="Hr3CezeHWbQ0Q17u9RuE-48" value="" style="html=1;points=[];perimeter=orthogonalPerimeter;outlineConnect=0;targetShapes=umlLifeline;portConstraint=eastwest;newEdgeStyle={&quot;edgeStyle&quot;:&quot;elbowEdgeStyle&quot;,&quot;elbow&quot;:&quot;vertical&quot;,&quot;curved&quot;:0,&quot;rounded&quot;:0};fillColor=#FFFFCC;rounded=0;glass=0;" vertex="1" parent="Hr3CezeHWbQ0Q17u9RuE-38">
          <mxGeometry x="55" y="80" width="10" height="290" as="geometry" />
        </mxCell>
        <mxCell id="Hr3CezeHWbQ0Q17u9RuE-67" value="3: verification du JWT" style="html=1;align=left;spacingLeft=2;endArrow=block;rounded=0;edgeStyle=orthogonalEdgeStyle;curved=0;rounded=0;" edge="1" target="Hr3CezeHWbQ0Q17u9RuE-48" parent="Hr3CezeHWbQ0Q17u9RuE-38" source="Hr3CezeHWbQ0Q17u9RuE-48">
          <mxGeometry x="0.1819" relative="1" as="geometry">
            <mxPoint x="110" y="120" as="sourcePoint" />
            <Array as="points">
              <mxPoint x="100" y="100" />
              <mxPoint x="100" y="140" />
            </Array>
            <mxPoint x="74.99999999999977" y="140" as="targetPoint" />
            <mxPoint as="offset" />
          </mxGeometry>
        </mxCell>
        <mxCell id="Hr3CezeHWbQ0Q17u9RuE-40" value="Database&lt;br&gt;(MySQL)" style="shape=umlLifeline;perimeter=lifelinePerimeter;whiteSpace=wrap;html=1;container=1;dropTarget=0;collapsible=0;recursiveResize=0;outlineConnect=0;portConstraint=eastwest;newEdgeStyle={&quot;edgeStyle&quot;:&quot;elbowEdgeStyle&quot;,&quot;elbow&quot;:&quot;vertical&quot;,&quot;curved&quot;:0,&quot;rounded&quot;:0};size=40;rounded=1;fillColor=#FFCCE6;" vertex="1" parent="1">
          <mxGeometry x="550" y="20" width="120" height="440" as="geometry" />
        </mxCell>
        <mxCell id="Hr3CezeHWbQ0Q17u9RuE-41" value="" style="html=1;points=[];perimeter=orthogonalPerimeter;outlineConnect=0;targetShapes=umlLifeline;portConstraint=eastwest;newEdgeStyle={&quot;edgeStyle&quot;:&quot;elbowEdgeStyle&quot;,&quot;elbow&quot;:&quot;vertical&quot;,&quot;curved&quot;:0,&quot;rounded&quot;:0};fillColor=#FFCCE6;rounded=0;arcSize=50;" vertex="1" parent="Hr3CezeHWbQ0Q17u9RuE-40">
          <mxGeometry x="55" y="200" width="10" height="150" as="geometry" />
        </mxCell>
        <mxCell id="Hr3CezeHWbQ0Q17u9RuE-42" value="1: Clique sur le&lt;br&gt;&amp;nbsp;lien de validation" style="html=1;verticalAlign=bottom;startArrow=oval;endArrow=block;startSize=8;edgeStyle=elbowEdgeStyle;elbow=vertical;curved=0;rounded=1;" edge="1" parent="1" target="Hr3CezeHWbQ0Q17u9RuE-35">
          <mxGeometry x="0.0327" relative="1" as="geometry">
            <mxPoint x="130" y="100" as="sourcePoint" />
            <mxPoint as="offset" />
          </mxGeometry>
        </mxCell>
        <mxCell id="Hr3CezeHWbQ0Q17u9RuE-65" value="2: transmission du&lt;br&gt;&amp;nbsp;token dans l&#39;url" style="html=1;verticalAlign=bottom;startArrow=oval;startFill=1;endArrow=block;startSize=8;edgeStyle=elbowEdgeStyle;elbow=vertical;curved=0;rounded=0;" edge="1" parent="1" source="Hr3CezeHWbQ0Q17u9RuE-35" target="Hr3CezeHWbQ0Q17u9RuE-48">
          <mxGeometry width="60" relative="1" as="geometry">
            <mxPoint x="300" y="120" as="sourcePoint" />
            <mxPoint x="360" y="120" as="targetPoint" />
            <Array as="points">
              <mxPoint x="400" y="120" />
            </Array>
          </mxGeometry>
        </mxCell>
        <mxCell id="Hr3CezeHWbQ0Q17u9RuE-68" value="JWT non valide" style="shape=umlFrame;whiteSpace=wrap;html=1;pointerEvents=0;width=90;height=30;rounded=1;fillColor=#FF9999;" vertex="1" parent="1">
          <mxGeometry x="19" y="140" width="670" height="70" as="geometry" />
        </mxCell>
        <mxCell id="Hr3CezeHWbQ0Q17u9RuE-69" value="4: retour negatif" style="html=1;verticalAlign=bottom;endArrow=open;dashed=1;endSize=8;edgeStyle=elbowEdgeStyle;elbow=vertical;curved=0;rounded=0;" edge="1" parent="1" source="Hr3CezeHWbQ0Q17u9RuE-48" target="Hr3CezeHWbQ0Q17u9RuE-35">
          <mxGeometry relative="1" as="geometry">
            <mxPoint x="410" y="170" as="sourcePoint" />
            <mxPoint x="330" y="170" as="targetPoint" />
            <Array as="points">
              <mxPoint x="340" y="180" />
            </Array>
          </mxGeometry>
        </mxCell>
        <mxCell id="Hr3CezeHWbQ0Q17u9RuE-70" value="" style="ellipse;html=1;shape=endState;fillColor=#000000;strokeColor=#ff0000;rounded=1;" vertex="1" parent="1">
          <mxGeometry x="120" y="180" width="20" height="20" as="geometry" />
        </mxCell>
        <mxCell id="Hr3CezeHWbQ0Q17u9RuE-71" value="5: message d&#39;erreur &lt;br&gt;en fonction du type&lt;br&gt;&amp;nbsp;de retour de l&#39;api" style="html=1;verticalAlign=bottom;endArrow=open;dashed=1;endSize=8;edgeStyle=elbowEdgeStyle;elbow=vertical;curved=0;rounded=0;" edge="1" parent="1" source="Hr3CezeHWbQ0Q17u9RuE-35" target="Hr3CezeHWbQ0Q17u9RuE-70">
          <mxGeometry x="0.0345" y="20" relative="1" as="geometry">
            <mxPoint x="290" y="179.71" as="sourcePoint" />
            <mxPoint x="140" y="179.71" as="targetPoint" />
            <Array as="points">
              <mxPoint x="270" y="190" />
              <mxPoint x="185" y="179.71" />
            </Array>
            <mxPoint as="offset" />
          </mxGeometry>
        </mxCell>
        <mxCell id="Hr3CezeHWbQ0Q17u9RuE-72" value="JWT valide" style="shape=umlFrame;whiteSpace=wrap;html=1;pointerEvents=0;width=90;height=30;rounded=1;fillColor=#99FF99;shadow=0;" vertex="1" parent="1">
          <mxGeometry x="19" y="210" width="670" height="250" as="geometry" />
        </mxCell>
        <mxCell id="Hr3CezeHWbQ0Q17u9RuE-73" value="6: Ajout en DB du compte" style="html=1;verticalAlign=bottom;startArrow=oval;startFill=1;endArrow=block;startSize=8;edgeStyle=elbowEdgeStyle;elbow=vertical;curved=0;rounded=0;" edge="1" parent="1" source="Hr3CezeHWbQ0Q17u9RuE-48" target="Hr3CezeHWbQ0Q17u9RuE-41">
          <mxGeometry width="60" relative="1" as="geometry">
            <mxPoint x="464.9999999999998" y="239.9999999999999" as="sourcePoint" />
            <mxPoint x="560" y="240" as="targetPoint" />
            <Array as="points">
              <mxPoint x="550" y="240" />
            </Array>
          </mxGeometry>
        </mxCell>
        <mxCell id="Hr3CezeHWbQ0Q17u9RuE-74" value="Ajout en DB KO" style="shape=umlFrame;whiteSpace=wrap;html=1;pointerEvents=0;width=90;height=30;rounded=1;fillColor=#FF9999;" vertex="1" parent="1">
          <mxGeometry x="34" y="270" width="646" height="70" as="geometry" />
        </mxCell>
        <mxCell id="Hr3CezeHWbQ0Q17u9RuE-75" value="Ajout en DB OK" style="shape=umlFrame;whiteSpace=wrap;html=1;pointerEvents=0;width=90;height=30;rounded=1;fillColor=#99FF99;shadow=0;" vertex="1" parent="1">
          <mxGeometry x="34" y="340" width="646" height="90" as="geometry" />
        </mxCell>
        <mxCell id="Hr3CezeHWbQ0Q17u9RuE-77" value="7: retour KO :&lt;br&gt;&amp;nbsp;mail déjà utilisé" style="html=1;verticalAlign=bottom;endArrow=open;dashed=1;endSize=8;edgeStyle=elbowEdgeStyle;elbow=vertical;curved=0;rounded=0;" edge="1" parent="1" source="Hr3CezeHWbQ0Q17u9RuE-41" target="Hr3CezeHWbQ0Q17u9RuE-48">
          <mxGeometry relative="1" as="geometry">
            <mxPoint x="600" y="320" as="sourcePoint" />
            <mxPoint x="450" y="320" as="targetPoint" />
            <Array as="points">
              <mxPoint x="560" y="300" />
              <mxPoint x="495" y="320" />
            </Array>
          </mxGeometry>
        </mxCell>
        <mxCell id="Hr3CezeHWbQ0Q17u9RuE-78" value="8: retour negatif" style="html=1;verticalAlign=bottom;endArrow=open;dashed=1;endSize=8;edgeStyle=elbowEdgeStyle;elbow=vertical;curved=0;rounded=0;" edge="1" parent="1" source="Hr3CezeHWbQ0Q17u9RuE-48" target="Hr3CezeHWbQ0Q17u9RuE-35">
          <mxGeometry relative="1" as="geometry">
            <mxPoint x="440" y="310" as="sourcePoint" />
            <mxPoint x="290" y="310" as="targetPoint" />
            <Array as="points">
              <mxPoint x="310" y="310" />
              <mxPoint x="335" y="310" />
            </Array>
          </mxGeometry>
        </mxCell>
        <mxCell id="Hr3CezeHWbQ0Q17u9RuE-79" value="9: message d&#39;erreur &lt;br&gt;en fonction du type&lt;br&gt;&amp;nbsp;de retour de l&#39;api" style="html=1;verticalAlign=bottom;endArrow=open;dashed=1;endSize=8;edgeStyle=elbowEdgeStyle;elbow=vertical;curved=0;rounded=0;" edge="1" parent="1" source="Hr3CezeHWbQ0Q17u9RuE-35" target="Hr3CezeHWbQ0Q17u9RuE-80">
          <mxGeometry x="0.0345" y="20" relative="1" as="geometry">
            <mxPoint x="285" y="320" as="sourcePoint" />
            <mxPoint x="140" y="320" as="targetPoint" />
            <Array as="points">
              <mxPoint x="270" y="320" />
              <mxPoint x="185" y="309.71000000000004" />
            </Array>
            <mxPoint as="offset" />
          </mxGeometry>
        </mxCell>
        <mxCell id="Hr3CezeHWbQ0Q17u9RuE-80" value="" style="ellipse;html=1;shape=endState;fillColor=#000000;strokeColor=#ff0000;rounded=1;" vertex="1" parent="1">
          <mxGeometry x="120" y="310" width="20" height="20" as="geometry" />
        </mxCell>
        <mxCell id="Hr3CezeHWbQ0Q17u9RuE-81" value="10: retour OK" style="html=1;verticalAlign=bottom;endArrow=open;dashed=1;endSize=8;edgeStyle=elbowEdgeStyle;elbow=vertical;curved=0;rounded=0;" edge="1" parent="1" source="Hr3CezeHWbQ0Q17u9RuE-41" target="Hr3CezeHWbQ0Q17u9RuE-48">
          <mxGeometry relative="1" as="geometry">
            <mxPoint x="570" y="370" as="sourcePoint" />
            <mxPoint x="490" y="370" as="targetPoint" />
            <Array as="points">
              <mxPoint x="580" y="360" />
              <mxPoint x="490" y="370" />
            </Array>
          </mxGeometry>
        </mxCell>
        <mxCell id="Hr3CezeHWbQ0Q17u9RuE-84" value="11: retour positif" style="html=1;verticalAlign=bottom;endArrow=open;dashed=1;endSize=8;edgeStyle=elbowEdgeStyle;elbow=vertical;curved=0;rounded=0;" edge="1" parent="1" source="Hr3CezeHWbQ0Q17u9RuE-48" target="Hr3CezeHWbQ0Q17u9RuE-35">
          <mxGeometry relative="1" as="geometry">
            <mxPoint x="450" y="380" as="sourcePoint" />
            <mxPoint x="300" y="380" as="targetPoint" />
            <Array as="points">
              <mxPoint x="315" y="380" />
              <mxPoint x="340" y="380" />
            </Array>
          </mxGeometry>
        </mxCell>
        <mxCell id="Hr3CezeHWbQ0Q17u9RuE-85" value="" style="ellipse;html=1;shape=endState;fillColor=#000000;strokeColor=#ff0000;rounded=1;" vertex="1" parent="1">
          <mxGeometry x="120" y="380" width="20" height="20" as="geometry" />
        </mxCell>
        <mxCell id="Hr3CezeHWbQ0Q17u9RuE-86" value="12: Félicitation compte&lt;br&gt;&amp;nbsp;créé!" style="html=1;verticalAlign=bottom;endArrow=open;dashed=1;endSize=8;edgeStyle=elbowEdgeStyle;elbow=vertical;curved=0;rounded=0;" edge="1" parent="1" source="Hr3CezeHWbQ0Q17u9RuE-35" target="Hr3CezeHWbQ0Q17u9RuE-85">
          <mxGeometry x="0.0344" relative="1" as="geometry">
            <mxPoint x="285" y="389.65999999999997" as="sourcePoint" />
            <mxPoint x="140" y="389.65999999999997" as="targetPoint" />
            <Array as="points">
              <mxPoint x="270" y="389.65999999999997" />
              <mxPoint x="185" y="379.37" />
            </Array>
            <mxPoint as="offset" />
          </mxGeometry>
        </mxCell>
      </root>
    </mxGraphModel>
  </diagram>
</mxfile>
